STARTFONT 2.1
COMMENT ter-u20b
FONT -xos4-Terminus-Bold-R-Normal--20-200-72-72-C-100-ISO10646-1
SIZE 20 72 72
FONTBOUNDINGBOX 10 20 0 -4
STARTPROPERTIES 20
FAMILY_NAME "Terminus"
FOUNDRY "xos4"
SETWIDTH_NAME "Normal"
ADD_STYLE_NAME ""
COPYRIGHT "Copyright (C) 2015 Dimitar Toshkov Zhekov - Modified for testing purposes by Markus Fenske"
NOTICE "Licensed under the SIL Open Font License, Version 1.1"
WEIGHT_NAME "Bold"
SLANT "R"
PIXEL_SIZE 20
POINT_SIZE 200
RESOLUTION_X 72
RESOLUTION_Y 72
SPACING "C"
AVERAGE_WIDTH 100
CHARSET_REGISTRY "ISO10646"
CHARSET_ENCODING "1"
MIN_SPACE 10
FONT_ASCENT 16
FONT_DESCENT 4
DEFAULT_CHAR 65533
ENDPROPERTIES
CHARS 2
STARTCHAR exclam
ENCODING 33
SWIDTH 500 0
DWIDTH 10 0
BBX 10 20 0 -4
BITMAP
0000
0000
0000
0C00
0C00
0C00
0C00
0C00
0C00
0C00
0C00
0C00
0000
0000
0C00
0C00
0000
0000
0000
0000
ENDCHAR
STARTCHAR X
ENCODING 88
SWIDTH 500 0
DWIDTH 10 0
BBX 10 20 0 -4
BITMAP
0000
0000
0000
6180
6180
6180
3300
3300
1E00
0C00
1E00
3300
3300
6180
6180
6180
0000
0000
0000
0000
ENDCHAR
ENDFONT
